custom-analysis
version=1
nRows=4
nColumns=98
inDegrees=no

This file contains tibia displacement and acting force.

Units are S.I. units (seconds, meters, Newtons, ...)
Angles are in degrees.

endheader
time	APT	SIT	knee_angle	aACL_R_force	pACL_R_force	aPCL_R_force	pPCL_R_force	aMCL_R_force	mMCL_R_force	pMCL_R_force	aLCL_R_force	mLCL_R_force	pLCL_R_force	aPCL_L_force	pPCL_L_force	aMCL_L_force	aLCL_L_force	aACL_R_length	pACL_R_length	aPCL_R_length	pPCL_R_length	aMCL_R_length	mMCL_R_length	pMCL_R_length	aLCL_R_length	mLCL_R_length	pLCL_R_length	aPCL_L_length	pPCL_L_length	aMCL_L_length	aLCL_L_length	aACL_R_strain	pACL_R_strain	aPCL_R_strain	pPCL_R_strain	aMCL_R_strain	mMCL_R_strain	pMCL_R_strain	aLCL_R_strain	mLCL_R_strain	pLCL_R_strain	aPCL_L_strain	pPCL_L_strain	aMCL_L_strain	aLCL_L_strain	femur_lat_meniscii_r.femur_lat_r.force.X	femur_lat_meniscii_r.femur_lat_r.force.Y	femur_lat_meniscii_r.femur_lat_r.force.Z	femur_lat_meniscii_r.femur_lat_r.torque.X	femur_lat_meniscii_r.femur_lat_r.torque.Y	femur_lat_meniscii_r.femur_lat_r.torque.Z	femur_lat_meniscii_r.meniscus_lat_r.force.X	femur_lat_meniscii_r.meniscus_lat_r.force.Y	femur_lat_meniscii_r.meniscus_lat_r.force.Z	femur_lat_meniscii_r.meniscus_lat_r.torque.X	femur_lat_meniscii_r.meniscus_lat_r.torque.Y	femur_lat_meniscii_r.meniscus_lat_r.torque.Z	femur_med_meniscii_r.femur_med_r.force.X	femur_med_meniscii_r.femur_med_r.force.Y	femur_med_meniscii_r.femur_med_r.force.Z	femur_med_meniscii_r.femur_med_r.torque.X	femur_med_meniscii_r.femur_med_r.torque.Y	femur_med_meniscii_r.femur_med_r.torque.Z	femur_med_meniscii_r.meniscus_med_r.force.X	femur_med_meniscii_r.meniscus_med_r.force.Y	femur_med_meniscii_r.meniscus_med_r.force.Z	femur_med_meniscii_r.meniscus_med_r.torque.X	femur_med_meniscii_r.meniscus_med_r.torque.Y	femur_med_meniscii_r.meniscus_med_r.torque.Z	femur_med_tibia_r.tibia_upper_r.force.X	femur_med_tibia_r.tibia_upper_r.force.Y	femur_med_tibia_r.tibia_upper_r.force.Z	femur_med_tibia_r.tibia_upper_r.torque.X	femur_med_tibia_r.tibia_upper_r.torque.Y	femur_med_tibia_r.tibia_upper_r.torque.Z	femur_med_tibia_r.femur_med_r.force.X	femur_med_tibia_r.femur_med_r.force.Y	femur_med_tibia_r.femur_med_r.force.Z	femur_med_tibia_r.femur_med_r.torque.X	femur_med_tibia_r.femur_med_r.torque.Y	femur_med_tibia_r.femur_med_r.torque.Z	femur_lat_tibia_r.tibia_upper_r.force.X	femur_lat_tibia_r.tibia_upper_r.force.Y	femur_lat_tibia_r.tibia_upper_r.force.Z	femur_lat_tibia_r.tibia_upper_r.torque.X	femur_lat_tibia_r.tibia_upper_r.torque.Y	femur_lat_tibia_r.tibia_upper_r.torque.Z	femur_lat_tibia_r.femur_lat_r.force.X	femur_lat_tibia_r.femur_lat_r.force.Y	femur_lat_tibia_r.femur_lat_r.force.Z	femur_lat_tibia_r.femur_lat_r.torque.X	femur_lat_tibia_r.femur_lat_r.torque.Y	femur_lat_tibia_r.femur_lat_r.torque.Z	femur_lat_meniscii_force_r	femur_med_meniscii_force_r	femur_lat_tibia_force_r	femur_med_tibia_force_r
      0.20855408	      0.01347830	      0.02615089	     81.34913978	      0.00000000	      0.00000000	    970.12795867	    610.66223167	     24.68090682	      9.92392423	      0.00000000	      0.00000000	      0.00000000	      0.00000000	      0.00000000	      0.00000000	      0.00000001	      0.00000000	      0.03093234	      0.02435800	      0.03719819	      0.03396075	      0.06149810	      0.05991083	      0.05653689	      0.05016118	      0.04473626	      0.03978153	      0.01525851	      0.01651186	      0.06550154	      0.04489616	     -0.00235964	     -0.02796253	      0.19626422	      0.13627472	      0.02450736	      0.00196220	     -0.03730950	     -0.10389987	     -0.20565738	     -0.23997936	      0.00000079	     -0.32847694	      0.00000060	     -0.00000086	     81.83512594	     51.73835430	      4.17740796	     -2.85889837	      1.89779155	     32.44655671	    -81.83512594	    -51.73835430	     -4.17740796	      1.35244163	     -2.23379743	      1.22635005	      0.08354805	     -0.00169072	     -0.05044023	      0.02004456	     -0.00131238	      0.03324641	     -0.08354805	      0.00169072	      0.05044023	     -0.00015923	      0.00245292	     -0.00034703	   -933.92334955	   -379.78539750	    324.15057149	     -8.50057518	     22.63071766	      2.23209282	    933.92334955	    379.78539750	   -324.15057149	    137.35543501	    -16.38159085	    376.33854750	   -349.80735624	   -155.36421849	    -95.45197915	      5.08116815	    -12.11675629	      1.11623585	    349.80735624	    155.36421849	     95.45197915	    -42.29761590	      8.57613033	    141.03559696	     96.90869868	      0.09760815	    394.47979313	   1059.02000170
      0.20857380	      0.01347757	      0.02615476	     81.36002617	      0.00000000	      0.00000000	    972.36349229	    616.50963417	     26.73141964	     12.48085900	      0.00000000	      0.00000000	      0.00000000	      0.00000000	      0.00000000	      0.00000000	      0.00000001	      0.00000000	      0.03093234	      0.02435854	      0.03719905	      0.03396143	      0.06149866	      0.05991110	      0.05653730	      0.05016009	      0.04473505	      0.03978051	      0.01525851	      0.01651186	      0.06550154	      0.04489616	     -0.00235967	     -0.02794077	      0.19629166	      0.13629733	      0.02451669	      0.00196669	     -0.03730255	     -0.10391919	     -0.20567903	     -0.23999887	      0.00000079	     -0.32847694	      0.00000060	     -0.00000086	     77.24680767	     51.70565532	      5.30669837	     -3.31623493	      1.80334926	     30.59007482	    -77.24680767	    -51.70565532	     -5.30669837	      1.36438625	     -2.15754613	      1.27306278	      0.07685313	     -0.00079405	     -0.04662386	      0.01853576	     -0.00120761	      0.03057555	     -0.07685313	      0.00079405	      0.04662386	     -0.00015270	      0.00226293	     -0.00029153	   -929.99949626	   -384.78383379	    321.02240295	     -8.51029627	     22.46739467	      2.48281337	    929.99949626	    384.78383379	   -321.02240295	    136.14674539	    -16.29229295	    374.68062315	   -348.03550882	   -157.57117180	    -96.74334338	      5.15177832	    -12.12711735	      1.23363165	    348.03550882	    157.57117180	     96.74334338	    -42.87174516	      8.55591243	    140.28108469	     93.10588131	      0.08989337	    394.10235228	   1056.41518589
      0.20859351	      0.01347655	      0.02615844	     81.37086235	      0.00000000	      0.00000000	    978.09458410	    631.87258979	     32.23824510	     19.31024864	      0.00000000	      0.00000000	      0.00000000	      0.00000000	      0.00000000	      0.00000000	      0.00000001	      0.00000000	      0.03093224	      0.02435906	      0.03720020	      0.03396241	      0.06149937	      0.05991154	      0.05653791	      0.05015922	      0.04473405	      0.03977975	      0.01525851	      0.01651186	      0.06550154	      0.04489616	     -0.00236280	     -0.02791990	      0.19632857	      0.13633032	      0.02452846	      0.00197421	     -0.03729206	     -0.10393479	     -0.20569674	     -0.24001345	      0.00000079	     -0.32847694	      0.00000060	     -0.00000086	     65.15213625	     51.26751771	      7.88012377	     -4.34927210	      1.54878954	     25.70110227	    -65.15213625	    -51.26751771	     -7.88012377	      1.38144050	     -1.93989871	      1.38118371	      0.05990994	      0.00098268	     -0.03673236	      0.01461949	     -0.00094228	      0.02382066	     -0.05990994	     -0.00098268	      0.03673236	     -0.00013197	      0.00177548	     -0.00016945	   -918.44300127	   -396.98170028	    312.48884327	     -8.52599356	     22.01333670	      3.10988692	    918.44300127	    396.98170028	   -312.48884327	    132.83192623	    -16.03803623	    369.83142386	   -343.12149199	   -163.04620453	   -100.00138604	      5.32855432	    -12.14213488	      1.52834838	    343.12149199	    163.04620453	    100.00138604	    -44.31867430	      8.49563239	    138.19868027	     83.27818190	      0.07028109	    392.83164369	   1048.22769192
      0.20862720	      0.01347449	      0.02616453	     81.38932752	      0.00000000	      0.00000000	    980.30736400	    637.15404450	     34.09751685	     21.59205928	      0.00000000	      0.00000000	      0.00000000	      0.00000000	      0.00000000	      0.00000000	      0.00000001	      0.00000000	      0.03093198	      0.02435994	      0.03720246	      0.03396442	      0.06150073	      0.05991250	      0.05653918	      0.05015795	      0.04473258	      0.03977871	      0.01525851	      0.01651186	      0.06550154	      0.04489616	     -0.00237125	     -0.02788497	      0.19640150	      0.13639753	      0.02455113	      0.00199025	     -0.03727043	     -0.10395756	     -0.20572285	     -0.24003319	      0.00000079	     -0.32847694	      0.00000060	     -0.00000086	     61.08611712	     50.97311694	      8.59689331	     -4.63316575	      1.46169308	     24.05923584	    -61.08611712	    -50.97311694	     -8.59689331	      1.38186007	     -1.86122958	      1.41220506	      0.05362383	      0.00140949	     -0.03321696	      0.01322578	     -0.00084369	      0.02131667	     -0.05362383	     -0.00140949	      0.03321696	     -0.00012314	      0.00159872	     -0.00013237	   -912.52203906	   -399.19421292	    309.09609529	     -8.49965514	     21.81749266	      3.28369389	    912.52203906	    399.19421292	   -309.09609529	    131.47582327	    -15.91772234	    367.38943855	   -340.96086260	   -164.58943485	   -100.71912891	      5.37451510	    -12.12044603	      1.62640225	    340.96086260	    164.58943485	    100.71912891	    -44.64399085	      8.45990166	    137.29300073	     80.02299001	      0.06309413	    391.77587319	   1042.87721594
